<?xml version="1.0" standalone="no"?>
<!DOCTYPE svg PUBLIC "-//W3C//DTD SVG 20010904//EN"
 "http://www.w3.org/TR/2001/REC-SVG-20010904/DTD/svg10.dtd">
<svg version="1.0" xmlns="http://www.w3.org/2000/svg"
 width="480.000000pt" height="480.000000pt" viewBox="0 0 480.000000 480.000000"
 preserveAspectRatio="xMidYMid meet">
<metadata>
Created by potrace 1.14, written by Peter Selinger 2001-2017
</metadata>
<g transform="translate(0.000000,480.000000) scale(0.100000,-0.100000)"
fill="#000000" stroke="none">
<path d="M3225 3674 c-237 -67 -442 -169 -712 -351 -51 -34 -98 -67 -105 -73
-7 -6 -48 -37 -90 -69 -115 -87 -288 -241 -423 -377 -383 -384 -650 -781 -751
-1119 -21 -72 -27 -112 -28 -200 -1 -99 2 -116 26 -166 45 -98 115 -147 241
-170 139 -26 382 35 622 155 581 290 1202 883 1528 1462 146 259 226 529 200
679 -20 114 -68 183 -160 225 -35 17 -63 20 -170 19 -79 0 -147 -6 -178 -15z
m-100 -576 l17 -78 70 0 70 0 -31 -37 c-17 -21 -42 -52 -56 -68 l-24 -30 19
-85 c10 -46 18 -86 16 -87 -2 -2 -24 19 -50 47 -26 27 -49 50 -51 50 -2 0 -25
-23 -51 -50 -26 -28 -48 -49 -50 -47 -2 1 6 41 16 87 l19 85 -24 30 c-14 16
-39 47 -56 68 l-31 37 70 0 70 0 16 71 c9 39 16 79 17 88 1 22 5 8 24 -81z"/>
<path d="M2890 1631 l-34 -28 85 -111 c46 -61 89 -111 94 -111 21 0 68 47 60
60 -14 23 -157 209 -165 214 -4 2 -22 -8 -40 -24z"/>
<path d="M3253 1153 l-32 -28 87 -112 c48 -62 89 -112 92 -112 3 0 20 12 38
27 l33 27 -86 113 c-47 61 -90 112 -93 112 -4 0 -22 -12 -39 -27z"/>
<path d="M3631 887 c-36 -170 -26 -157 -126 -157 -47 0 -85 -3 -85 -6 0 -3 32
-42 70 -86 43 -50 68 -87 65 -97 -6 -21 -55 -249 -55 -258 0 -4 36 31 80 77
l79 85 80 -85 c44 -47 80 -83 81 -79 0 3 -14 67 -30 143 l-30 137 71 82 71 82
-90 3 -89 3 -28 127 c-15 70 -30 130 -34 134 -4 4 -17 -43 -30 -105z"/>
</g>
</svg>
